<svg width="25" height="25" viewBox="0 0 25 25" fill="none" xmlns="http://www.w3.org/2000/svg">
<g clip-path="url(#clip0_560_16321)">
<path d="M20.5722 8.92043C20.5722 4.4233 16.9132 0.764282 12.416 0.764282C7.91891 0.764282 4.25989 4.4233 4.25989 8.92043C4.25989 13.0683 7.37236 16.5033 11.3848 17.0114V18.4828H9.69731C9.42381 18.4828 9.16151 18.5914 8.96811 18.7848C8.77471 18.9782 8.66606 19.2405 8.66606 19.514C8.66606 19.7875 8.77471 20.0498 8.96811 20.2432C9.16151 20.4366 9.42381 20.5453 9.69731 20.5453H11.3848V22.2327C11.3848 22.5062 11.4935 22.7686 11.6869 22.9619C11.8802 23.1553 12.1425 23.264 12.416 23.264C12.6896 23.264 12.9519 23.1553 13.1452 22.9619C13.3386 22.7686 13.4473 22.5062 13.4473 22.2327V20.5453H15.1348C15.4083 20.5453 15.6706 20.4366 15.8639 20.2432C16.0573 20.0498 16.166 19.7875 16.166 19.514C16.166 19.2405 16.0573 18.9782 15.8639 18.7848C15.6706 18.5914 15.4083 18.4828 15.1348 18.4828H13.4473V17.0114C17.4597 16.5033 20.5722 13.0683 20.5722 8.92043ZM6.32236 8.92043C6.32236 5.56048 9.05606 2.82675 12.416 2.82675C15.776 2.82675 18.5097 5.56048 18.5097 8.92043C18.5097 12.2804 15.776 15.0141 12.416 15.0141C9.05606 15.0141 6.32236 12.2804 6.32236 8.92043Z" fill="white"/>
</g>
<defs>
<clipPath id="clip0_560_16321">
<rect width="24" height="24" fill="white" transform="translate(0.417114 0.0142822)"/>
</clipPath>
</defs>
</svg>
