<svg width="65" height="18" viewBox="0 0 65 18" fill="none" xmlns="http://www.w3.org/2000/svg">
<path d="M4.79204 2.88073V3.77242H1.30007V2.88073H4.79204ZM1.58012 0.156493V6.68038H0.446287V0.156493H1.58012ZM5.66366 0.156493V6.68038H4.53432V0.156493H5.66366ZM12.1754 5.78869V6.68038H8.68361V5.78869H12.1754ZM9.00411 0.156493V6.68038H7.87014V0.156493H9.00411ZM11.7188 2.88073V3.75898H8.68361V2.88073H11.7188ZM12.1529 0.156493V1.05264H8.68361V0.156493H12.1529ZM16.5183 1.0257L14.5537 6.68038H13.3655L15.841 0.156493H16.5996L16.5183 1.0257ZM18.1624 6.68038L16.1932 1.0257L16.1073 0.156493H16.8705L19.3552 6.68038H18.1624ZM18.0679 4.2608V5.15243H14.4902V4.2608H18.0679ZM25.0673 5.78869V6.68038H21.7652V5.78869H25.0673ZM22.0811 0.156493V6.68038H20.9471V0.156493H22.0811ZM28.3761 0.156493V6.68038H27.2513V0.156493H28.3761ZM30.4405 0.156493V1.05264H25.2048V0.156493H30.4405ZM36.5088 2.88073V3.77242H33.017V2.88073H36.5088ZM33.2972 0.156493V6.68038H32.1632V0.156493H33.2972ZM37.3811 0.156493V6.68038H36.2517V0.156493H37.3811ZM43.0476 5.0001C43.0476 4.86566 43.0264 4.74624 42.9841 4.64163C42.9452 4.53708 42.8745 4.44152 42.772 4.35486C42.6696 4.26828 42.5249 4.18464 42.3385 4.10395C42.1548 4.02031 41.9196 3.93517 41.6334 3.84858C41.3202 3.75302 41.0314 3.64696 40.7664 3.53042C40.5041 3.41093 40.2755 3.27354 40.0799 3.1182C39.8843 2.95991 39.7316 2.77919 39.6232 2.57607C39.5148 2.36992 39.4607 2.13245 39.4607 1.86364C39.4607 1.59779 39.5168 1.35579 39.6278 1.13772C39.7422 0.919715 39.9034 0.731533 40.1116 0.573173C40.3224 0.411864 40.5708 0.287913 40.857 0.20126C41.1424 0.111659 41.459 0.0668945 41.8053 0.0668945C42.2929 0.0668945 42.7132 0.156493 43.0654 0.335696C43.421 0.514965 43.6939 0.75539 43.8835 1.0571C44.0758 1.35881 44.1723 1.69185 44.1723 2.05628H43.0476C43.0476 1.84123 43.0007 1.65154 42.9075 1.48722C42.817 1.31994 42.6789 1.18852 42.4918 1.09295C42.3081 0.997388 42.0749 0.949537 41.792 0.949537C41.5237 0.949537 41.301 0.989914 41.1233 1.07054C40.9455 1.15122 40.8127 1.26023 40.7255 1.39761C40.6382 1.53506 40.5946 1.69034 40.5946 1.86364C40.5946 1.98609 40.623 2.09811 40.6805 2.1997C40.738 2.29828 40.8253 2.39083 40.9422 2.47749C41.0598 2.56112 41.2072 2.64031 41.385 2.71496C41.5627 2.78962 41.7722 2.86132 42.0134 2.93002C42.3775 3.03758 42.6954 3.15707 42.9663 3.28849C43.2373 3.41696 43.4632 3.56333 43.6437 3.72759C43.8247 3.89191 43.9602 4.07859 44.0507 4.28768C44.1406 4.49382 44.1862 4.72828 44.1862 4.99118C44.1862 5.26595 44.13 5.51392 44.019 5.73494C43.9073 5.95301 43.7481 6.13969 43.5399 6.29503C43.335 6.44736 43.0886 6.56534 42.7991 6.64898C42.513 6.72967 42.1938 6.76998 41.8416 6.76998C41.5251 6.76998 41.2138 6.72816 40.9065 6.64452C40.6019 6.56088 40.325 6.43392 40.0752 6.2637C39.8254 6.0904 39.6265 5.87534 39.4792 5.61846C39.3311 5.35857 39.2578 5.05536 39.2578 4.70888H40.3911C40.3911 4.92099 40.4274 5.10169 40.5001 5.25101C40.5748 5.40039 40.6792 5.52283 40.8114 5.61846C40.9442 5.71108 41.0975 5.77977 41.272 5.82454C41.4497 5.86937 41.6394 5.89179 41.8416 5.89179C42.1066 5.89179 42.328 5.85443 42.5057 5.77977C42.6861 5.70505 42.8216 5.6005 42.9121 5.46613C43.0027 5.3317 43.0476 5.17635 43.0476 5.0001ZM48.5423 4.24737H46.8308V3.35567H48.5423C48.841 3.35567 49.0815 3.30789 49.2653 3.21233C49.449 3.11676 49.5831 2.98527 49.6677 2.818C49.7549 2.64777 49.7985 2.45356 49.7985 2.23556C49.7985 2.02941 49.7549 1.83677 49.6677 1.6575C49.5831 1.47528 49.449 1.32892 49.2653 1.21841C49.0815 1.1079 48.841 1.05264 48.5423 1.05264H47.1784V6.68038H46.0444V0.156493H48.5423C49.0518 0.156493 49.484 0.246097 49.8388 0.4253C50.1977 0.601554 50.4699 0.846501 50.6569 1.16014C50.8433 1.47083 50.9371 1.82629 50.9371 2.22658C50.9371 2.64778 50.8433 3.0092 50.6569 3.31091C50.4699 3.61261 50.1977 3.84413 49.8388 4.00537C49.484 4.16668 49.0518 4.24737 48.5423 4.24737ZM54.684 1.0257L52.7187 6.68038H51.5305L54.006 0.156493H54.7653L54.684 1.0257ZM56.3281 6.68038L54.3582 1.0257L54.2723 0.156493H55.0362L57.5209 6.68038H56.3281ZM56.2329 4.2608V5.15243H52.6553V4.2608H56.2329ZM64.33 0.156493V6.68038H63.196L60.2468 2.007V6.68038H59.1128V0.156493H60.2468L63.2053 4.83879V0.156493H64.33ZM4.33145 15.0441H5.46079C5.42444 15.4708 5.30417 15.8523 5.09932 16.1865C4.89447 16.5182 4.60701 16.7797 4.23629 16.9705C3.86623 17.1619 3.41555 17.2576 2.88564 17.2576C2.4791 17.2576 2.1132 17.1855 1.78795 17.0426C1.46269 16.8958 1.18416 16.6899 0.952208 16.4238C0.720326 16.1551 0.542701 15.8313 0.419193 15.4518C0.298726 15.0723 0.238525 14.6482 0.238525 14.1791V13.637C0.238525 13.168 0.300244 12.7439 0.423685 12.3645C0.550166 11.9851 0.730898 11.661 0.96582 11.3922C1.20068 11.1203 1.48225 10.9127 1.81055 10.7693C2.14182 10.6259 2.51373 10.5543 2.92628 10.5543C3.45057 10.5543 3.89332 10.6499 4.25413 10.8411C4.6156 11.0322 4.89579 11.2965 5.09469 11.6341C5.29624 11.9717 5.41982 12.3585 5.46476 12.7946H4.33541C4.30568 12.5138 4.23959 12.2734 4.13717 12.0732C4.03738 11.8731 3.89002 11.7207 3.69442 11.6162C3.49881 11.5086 3.24242 11.4549 2.92628 11.4549C2.6673 11.4549 2.44144 11.5027 2.24874 11.5982C2.05598 11.6939 1.89487 11.8343 1.76535 12.0194C1.63583 12.2047 1.53796 12.4332 1.47175 12.705C1.40851 12.9739 1.37685 13.2815 1.37685 13.628V14.1791C1.37685 14.5077 1.40546 14.8061 1.46269 15.0755C1.52296 15.341 1.61329 15.5698 1.73376 15.7611C1.8572 15.9519 2.01382 16.1 2.20354 16.2042C2.39326 16.3091 2.62065 16.3616 2.88564 16.3616C3.20805 16.3616 3.46842 16.3104 3.66732 16.2088C3.86887 16.1072 4.02086 15.9598 4.12329 15.7651C4.22902 15.5684 4.29774 15.3279 4.33145 15.0441ZM9.90745 11.5131L7.94283 17.1678H6.75467L9.23011 10.6439H9.98873L9.90745 11.5131ZM11.5516 17.1678L9.58232 11.5131L9.49642 10.6439H10.2597L12.7444 17.1678H11.5516ZM11.4571 14.7485V15.6399H7.87939V14.7485H11.4571ZM18.4565 16.2763V17.1678H15.1544V16.2763H18.4565ZM15.4702 10.6439V17.1678H14.3363V10.6439H15.4702ZM23.7754 15.0441H24.9048C24.8684 15.4708 24.7482 15.8523 24.5433 16.1865C24.3384 16.5182 24.051 16.7797 23.6803 16.9705C23.3102 17.1619 22.8595 17.2576 22.3295 17.2576C21.9231 17.2576 21.5571 17.1855 21.2319 17.0426C20.9068 16.8958 20.6279 16.6899 20.396 16.4238C20.164 16.1551 19.9869 15.8313 19.8634 15.4518C19.7424 15.0723 19.6823 14.6482 19.6823 14.1791V13.637C19.6823 13.168 19.7444 12.7439 19.868 12.3645C19.9942 11.9851 20.1746 11.661 20.4099 11.3922C20.6445 11.1203 20.926 10.9127 21.2544 10.7693C21.5861 10.6259 21.9575 10.5543 22.3705 10.5543C22.8946 10.5543 23.3373 10.6499 23.6981 10.8411C24.0596 11.0322 24.3398 11.2965 24.5387 11.6341C24.7402 11.9717 24.8638 12.3585 24.9094 12.7946H23.7801C23.7497 12.5138 23.6836 12.2734 23.5811 12.0732C23.4814 11.8731 23.334 11.7207 23.1384 11.6162C22.9428 11.5086 22.6864 11.4549 22.3705 11.4549C22.1115 11.4549 21.8855 11.5027 21.6925 11.5982C21.5002 11.6939 21.339 11.8343 21.2095 12.0194C21.0799 12.2047 20.9821 12.4332 20.9161 12.705C20.8526 12.9739 20.8209 13.2815 20.8209 13.628V14.1791C20.8209 14.5077 20.8493 14.8061 20.9068 15.0755C20.9669 15.341 21.0575 15.5698 21.1777 15.7611C21.3013 15.9519 21.4579 16.1 21.6476 16.2042C21.8372 16.3091 22.0646 16.3616 22.3295 16.3616C22.652 16.3616 22.9124 16.3104 23.1113 16.2088C23.3129 16.1072 23.4648 15.9598 23.5673 15.7651C23.673 15.5684 23.7424 15.3279 23.7754 15.0441ZM30.4808 10.6439H31.6101V15.0034C31.6101 15.4996 31.5017 15.9145 31.285 16.2495C31.0682 16.5838 30.7729 16.8361 30.3995 17.0065C30.0294 17.1737 29.6151 17.2576 29.1571 17.2576C28.6847 17.2576 28.2631 17.1737 27.8923 17.0065C27.5223 16.8361 27.2302 16.5838 27.0161 16.2495C26.8053 15.9145 26.7002 15.4996 26.7002 15.0034V10.6439H27.8296V15.0034C27.8296 15.3174 27.8837 15.5757 27.9921 15.7788C28.1005 15.9788 28.2538 16.1269 28.4527 16.2226C28.6516 16.3176 28.8862 16.3655 29.1571 16.3655C29.4281 16.3655 29.662 16.3176 29.8576 16.2226C30.0565 16.1269 30.2098 15.9788 30.3182 15.7788C30.4266 15.5757 30.4808 15.3174 30.4808 15.0034V10.6439ZM37.8192 16.2763V17.1678H34.5171V16.2763H37.8192ZM34.8329 10.6439V17.1678H33.699V10.6439H34.8329ZM42.2031 11.5131L40.2378 17.1678H39.0496L41.5251 10.6439H42.2843L42.2031 11.5131ZM43.8472 17.1678L41.8773 11.5131L41.792 10.6439H42.5553L45.04 17.1678H43.8472ZM43.752 14.7485V15.6399H40.1743V14.7485H43.752ZM48.7683 10.6439V17.1678H47.6436V10.6439H48.7683ZM50.8327 10.6439V11.54H45.597V10.6439H50.8327ZM57.6742 13.7266V14.0851C57.6742 14.578 57.6094 15.0198 57.4799 15.4111C57.3504 15.8024 57.1654 16.1354 56.9242 16.4107C56.6863 16.6854 56.4001 16.8958 56.0658 17.0426C55.7314 17.1855 55.3613 17.2576 54.9549 17.2576C54.5512 17.2576 54.1824 17.1855 53.848 17.0426C53.517 16.8958 53.2289 16.6854 52.985 16.4107C52.7412 16.1354 52.5515 15.8024 52.416 15.4111C52.2832 15.0198 52.2171 14.578 52.2171 14.0851V13.7266C52.2171 13.2337 52.2832 12.7931 52.416 12.4048C52.5482 12.0135 52.7352 11.6804 52.9764 11.4056C53.2203 11.1278 53.5077 10.9172 53.8388 10.7738C54.1732 10.6274 54.5419 10.5543 54.9457 10.5543C55.3521 10.5543 55.7228 10.6274 56.0572 10.7738C56.3915 10.9172 56.679 11.1278 56.9195 11.4056C57.1607 11.6804 57.3458 12.0135 57.4753 12.4048C57.6081 12.7931 57.6742 13.2337 57.6742 13.7266ZM56.5402 14.0851V13.7176C56.5402 13.3532 56.5039 13.0321 56.4319 12.7543C56.3625 12.4735 56.2587 12.239 56.1199 12.0508C55.9845 11.8596 55.8173 11.7162 55.619 11.6207C55.4201 11.5221 55.1954 11.4728 54.9457 11.4728C54.6959 11.4728 54.4732 11.5221 54.2769 11.6207C54.0813 11.7162 53.9141 11.8596 53.776 12.0508C53.6399 12.239 53.5361 12.4735 53.4641 12.7543C53.3914 13.0321 53.3557 13.3532 53.3557 13.7176V14.0851C53.3557 14.4495 53.3914 14.7721 53.4641 15.0526C53.5361 15.3338 53.6419 15.5711 53.78 15.7651C53.9221 15.9565 54.0906 16.1013 54.2862 16.1997C54.4818 16.2954 54.7045 16.3432 54.9549 16.3432C55.208 16.3432 55.432 16.2954 55.6276 16.1997C55.8232 16.1013 55.9891 15.9565 56.1246 15.7651C56.26 15.5711 56.3625 15.3338 56.4319 15.0526C56.5039 14.7721 56.5402 14.4495 56.5402 14.0851ZM59.6639 10.6439H61.99C62.4902 10.6439 62.9165 10.7185 63.2687 10.8679C63.6209 11.0172 63.8905 11.2383 64.0769 11.5311C64.2672 11.8208 64.3617 12.1792 64.3617 12.6064C64.3617 12.932 64.3016 13.2188 64.1813 13.4667C64.0604 13.7147 63.8905 13.9238 63.6705 14.094C63.4511 14.2613 63.1887 14.3912 62.8848 14.4838L62.5411 14.6495H60.4496L60.4411 13.758H62.0085C62.2794 13.758 62.5055 13.7101 62.6859 13.6146C62.8663 13.519 63.0024 13.389 63.0923 13.2248C63.1861 13.0575 63.2324 12.8693 63.2324 12.6602C63.2324 12.4332 63.1874 12.236 63.0969 12.0687C63.0097 11.8984 62.8742 11.7685 62.6905 11.6789C62.5068 11.5863 62.2735 11.54 61.99 11.54H60.7979V17.1678H59.6639V10.6439ZM63.4174 17.1678L61.873 14.2374L63.0605 14.2329L64.628 17.1094V17.1678H63.4174Z" fill="white"/>
</svg>
