<svg width="90" height="25" viewBox="0 0 90 25" fill="none" xmlns="http://www.w3.org/2000/svg">
<path d="M3.97566 1.859V24.2266H0.0879211V1.859H3.97566ZM17.5271 1.859L8.38928 12.628L3.18532 18.097L2.50401 14.2718L6.22113 9.72454L12.7884 1.859H17.5271ZM13.3454 24.2266L5.92706 13.6266L8.60603 10.9996L17.9613 24.2266H13.3454ZM23.7851 0.630005V24.2266H20.0369V0.630005H23.7851ZM27.1936 16.1V15.7466C27.1936 14.5484 27.3687 13.4371 27.7203 12.413C28.0711 11.3785 28.5767 10.4824 29.2375 9.72454C29.9089 8.95641 30.7243 8.36243 31.6852 7.94247C32.6553 7.51236 33.7502 7.2973 34.9681 7.2973C36.1973 7.2973 37.2916 7.51236 38.2517 7.94247C39.2225 8.36243 40.0432 8.95641 40.7146 9.72454C41.3854 10.4824 41.8968 11.3785 42.2477 12.413C42.5986 13.4371 42.7744 14.5484 42.7744 15.7466V16.1C42.7744 17.2982 42.5986 18.4094 42.2477 19.4336C41.8968 20.4577 41.3854 21.3539 40.7146 22.122C40.0432 22.8799 39.2278 23.4739 38.267 23.904C37.3068 24.3239 36.2177 24.5339 34.9992 24.5339C33.7707 24.5339 32.6711 24.3239 31.7004 23.904C30.7402 23.4739 29.9241 22.8799 29.2534 22.122C28.582 21.3539 28.0711 20.4577 27.7203 19.4336C27.3687 18.4094 27.1936 17.2982 27.1936 16.1ZM30.9259 15.7466V16.1C30.9259 16.8476 31.0032 17.5542 31.1585 18.2199C31.3131 18.8857 31.5557 19.4694 31.8861 19.9713C32.2165 20.4731 32.6401 20.8674 33.1562 21.1542C33.6723 21.4409 34.2868 21.5843 34.9992 21.5843C35.6911 21.5843 36.2898 21.4409 36.796 21.1542C37.3121 20.8674 37.7357 20.4731 38.0661 19.9713C38.3965 19.4694 38.639 18.8857 38.7936 18.2199C38.9588 17.5542 39.0414 16.8476 39.0414 16.1V15.7466C39.0414 15.0092 38.9588 14.3128 38.7936 13.6573C38.639 12.9916 38.3912 12.4027 38.0502 11.8906C37.7198 11.3785 37.2969 10.9792 36.7801 10.6924C36.2746 10.3953 35.6706 10.2469 34.9681 10.2469C34.2663 10.2469 33.6571 10.3953 33.141 10.6924C32.6348 10.9792 32.2165 11.3785 31.8861 11.8906C31.5557 12.4027 31.3131 12.9916 31.1585 13.6573C31.0032 14.3128 30.9259 15.0092 30.9259 15.7466ZM53.6165 7.60451V10.3083H44.1687V7.60451H53.6165ZM46.8946 3.5335H50.6276V19.6333C50.6276 20.1453 50.6996 20.5397 50.8443 20.8162C50.999 21.0825 51.2104 21.2617 51.4794 21.3539C51.7477 21.446 52.0629 21.4921 52.4237 21.4921C52.6821 21.4921 52.9299 21.4768 53.1671 21.446C53.405 21.4153 53.596 21.3846 53.7407 21.3539L53.7559 24.1806C53.446 24.2727 53.0845 24.3547 52.6715 24.4264C52.2691 24.4981 51.8045 24.5339 51.2778 24.5339C50.4208 24.5339 49.6621 24.3854 49.0013 24.0884C48.3405 23.7811 47.8237 23.2844 47.4524 22.5982C47.0803 21.9121 46.8946 21.0005 46.8946 19.8638V3.5335ZM60.2154 0.630005V24.2266H56.4983V0.630005H60.2154ZM59.5645 15.3011L58.3566 15.2857C58.3671 14.1387 58.527 13.0787 58.837 12.1057C59.1568 11.1327 59.6009 10.2878 60.1685 9.5709C60.7467 8.84373 61.4386 8.28561 62.2442 7.89639C63.0497 7.49702 63.9425 7.2973 64.9238 7.2973C65.7498 7.2973 66.4932 7.40997 67.1541 7.63526C67.8248 7.86054 68.403 8.22412 68.8887 8.72601C69.3737 9.21761 69.7405 9.86278 69.9883 10.6617C70.246 11.4502 70.3755 12.413 70.3755 13.5498V24.2266H66.6274V13.5191C66.6274 12.7202 66.5084 12.0853 66.2712 11.6141C66.0439 11.143 65.7082 10.805 65.2641 10.6002C64.82 10.3851 64.2782 10.2776 63.6378 10.2776C62.9671 10.2776 62.373 10.4107 61.8569 10.677C61.3507 10.9433 60.9278 11.3069 60.5868 11.7677C60.2465 12.2286 59.9881 12.7612 59.8123 13.3654C59.6471 13.9697 59.5645 14.6149 59.5645 15.3011ZM73.4735 16.1V15.7466C73.4735 14.5484 73.6493 13.4371 74.0002 12.413C74.351 11.3785 74.8572 10.4824 75.5181 9.72454C76.1895 8.95641 77.0049 8.36243 77.9651 7.94247C78.9358 7.51236 80.0301 7.2973 81.2487 7.2973C82.4772 7.2973 83.5715 7.51236 84.5323 7.94247C85.5024 8.36243 86.3238 8.95641 86.9945 9.72454C87.6659 10.4824 88.1767 11.3785 88.5276 12.413C88.8792 13.4371 89.0543 14.5484 89.0543 15.7466V16.1C89.0543 17.2982 88.8792 18.4094 88.5276 19.4336C88.1767 20.4577 87.6659 21.3539 86.9945 22.122C86.3238 22.8799 85.5077 23.4739 84.5475 23.904C83.5873 24.3239 82.4976 24.5339 81.2798 24.5339C80.0506 24.5339 78.951 24.3239 77.9809 23.904C77.0201 23.4739 76.2047 22.8799 75.5333 22.122C74.8625 21.3539 74.351 20.4577 74.0002 19.4336C73.6493 18.4094 73.4735 17.2982 73.4735 16.1ZM77.2065 15.7466V16.1C77.2065 16.8476 77.2838 17.5542 77.4384 18.2199C77.5937 18.8857 77.8362 19.4694 78.1666 19.9713C78.497 20.4731 78.92 20.8674 79.4367 21.1542C79.9528 21.4409 80.5674 21.5843 81.2798 21.5843C81.9716 21.5843 82.5703 21.4409 83.0759 21.1542C83.5926 20.8674 84.0155 20.4731 84.346 19.9713C84.6764 19.4694 84.9196 18.8857 85.0742 18.2199C85.2394 17.5542 85.322 16.8476 85.322 16.1V15.7466C85.322 15.0092 85.2394 14.3128 85.0742 13.6573C84.9196 12.9916 84.6717 12.4027 84.3308 11.8906C84.0004 11.3785 83.5768 10.9792 83.0607 10.6924C82.5545 10.3953 81.9505 10.2469 81.2487 10.2469C80.5462 10.2469 79.937 10.3953 79.4209 10.6924C78.9153 10.9792 78.497 11.3785 78.1666 11.8906C77.8362 12.4027 77.5937 12.9916 77.4384 13.6573C77.2838 14.3128 77.2065 15.0092 77.2065 15.7466Z" fill="white"/>
</svg>
